<?xml version="1.0" encoding="UTF-8"?>
<svg width="12px" height="12px" viewBox="0 0 12 12" version="1.1" xmlns="http://www.w3.org/2000/svg" xmlns:xlink="http://www.w3.org/1999/xlink">
    <!-- Generator: Sketch 62 (91390) - https://sketch.com -->
    <title>double right</title>
    <desc>Created with Sketch.</desc>
    <g id="页面-1" stroke="none" stroke-width="1" fill="none" fill-rule="evenodd">
        <g id="自定义预设" transform="translate(-773.000000, -437.000000)" fill-rule="nonzero">
            <g id="double-right" transform="translate(773.000000, 437.000000)">
                <rect id="矩形" fill="#000000" opacity="0" x="0" y="0" width="12" height="12"></rect>
                <path d="M6.2484375,5.76914063 L3.25664062,1.94648437 C3.22148437,1.90078125 3.16640625,1.875 3.10898437,1.875 L2.203125,1.875 C2.12460937,1.875 2.08125,1.96523437 2.12929687,2.02617188 L5.23945312,6 L2.12929687,9.97382813 C2.08125,10.0347656 2.12460937,10.125 2.203125,10.125 L3.10898437,10.125 C3.16640625,10.125 3.22148438,10.0980469 3.25664063,10.0535156 L6.2484375,6.23203125 C6.35507813,6.09492187 6.35507813,5.90507813 6.2484375,5.76914063 Z M9.8109375,5.76914063 L6.81914062,1.94648437 C6.78398437,1.90078125 6.72890625,1.875 6.67148438,1.875 L5.765625,1.875 C5.68710938,1.875 5.64375,1.96523437 5.69179687,2.02617188 L8.80195312,6 L5.69179687,9.97382813 C5.64375,10.0347656 5.68710938,10.125 5.765625,10.125 L6.67148438,10.125 C6.72890625,10.125 6.78398437,10.0980469 6.81914062,10.0535156 L9.8109375,6.23203125 C9.91757813,6.09492187 9.91757813,5.90507813 9.8109375,5.76914063 Z" id="形状" fill="#4A4D51"></path>
            </g>
        </g>
    </g>
</svg>