<?xml version="1.0" encoding="UTF-8"?>
<svg width="16px" height="16px" viewBox="0 0 16 16" version="1.1" xmlns="http://www.w3.org/2000/svg" xmlns:xlink="http://www.w3.org/1999/xlink">
    <!-- Generator: Sketch 63.1 (92452) - https://sketch.com -->
    <title>导出备份</title>
    <desc>Created with Sketch.</desc>
    <g id="页面-1" stroke="none" stroke-width="1" fill="none" fill-rule="evenodd">
        <g id="自定义预设" transform="translate(-794.000000, -467.000000)" fill-rule="nonzero">
            <g id="导出备份" transform="translate(794.000000, 467.000000)">
                <rect id="矩形" fill="#000000" opacity="0" x="0" y="0" width="16" height="16"></rect>
                <path d="M2.545625,1.53375 L6.58401107,1.53375 C6.85027728,1.53375 7.1055488,1.63994013 7.29325632,1.82878818 L8.66111868,3.20496182 C8.8488262,3.39380987 9.10409772,3.5 9.37036393,3.5 L13.5041265,3.5 C14.0547971,3.5 14.5018409,3.94519909 14.5041179,4.495865 L14.5414729,13.529615 C14.5437566,14.081895 14.0978964,14.5314578 13.5456164,14.5337415 C13.5442381,14.5337472 13.5428597,14.53375 13.5414814,14.53375 L2.545625,14.53375 C1.99334025,14.53375 1.545625,14.0860347 1.545625,13.53375 L1.545625,2.53375 C1.545625,1.98146525 1.99334025,1.53375 2.545625,1.53375 Z M10.9659375,8.6071875 L8.4434375,5.876875 C8.3915625,5.82484375 8.33390625,5.7821875 8.27046875,5.7509375 C8.20703125,5.7196875 8.12859375,5.724375 8.0340625,5.7671875 C7.93953125,5.77765625 7.86109375,5.801875 7.79765625,5.83875 C7.73546875,5.87578125 7.6778125,5.91953125 7.6246875,5.97265625 L5.10234375,8.60828125 C5.0078125,8.70296875 4.9546875,8.79984375 4.944375,8.9003125 C4.9340625,9.00078125 4.9546875,9.10359375 5.0078125,9.2084375 C5.06078125,9.31359375 5.13125,9.3896875 5.22109375,9.43703125 C5.30984375,9.484375 5.4078125,9.50859375 5.5128125,9.50859375 L6.82140625,9.50859375 L6.82140625,11.3234375 C6.83171875,11.4804688 6.8975,11.6201563 7.01859375,11.7414063 C7.1384375,11.8626563 7.27796875,11.9284375 7.4359375,11.93875 L8.635,11.93875 C9.04421875,11.93875 9.24953125,11.7332813 9.24953125,11.3234375 L9.24953125,9.50875 L10.4623438,9.50875 C10.7676563,9.54 10.9635938,9.43953125 11.0535938,9.20859375 C11.1425,8.9778125 11.1135938,8.776875 10.9659375,8.6071875 Z" id="形状" fill="#4293F4"></path>
            </g>
        </g>
    </g>
</svg>