<?xml version="1.0" encoding="UTF-8"?>
<svg width="14px" height="14px" viewBox="0 0 14 14" version="1.1" xmlns="http://www.w3.org/2000/svg" xmlns:xlink="http://www.w3.org/1999/xlink">
    <!-- Generator: Sketch 63.1 (92452) - https://sketch.com -->
    <title>location</title>
    <desc>Created with Sketch.</desc>
    <g id="页面-1" stroke="none" stroke-width="1" fill="none" fill-rule="evenodd">
        <g id="自定义预设" transform="translate(-764.000000, -499.000000)" fill-rule="nonzero">
            <g id="location" transform="translate(764.000000, 499.000000)">
                <rect id="矩形" fill="#000000" opacity="0" x="0" y="0" width="14" height="14"></rect>
                <path d="M12.353125,3.5171875 C12.059375,2.8390625 11.6390625,2.23125 11.1046875,1.709375 C10.5703125,1.1875 9.95,0.7796875 9.2578125,0.49375 C8.5421875,0.196875 7.7828125,0.046875 7,0.046875 C6.2171875,0.046875 5.4578125,0.196875 4.7421875,0.4921875 C4.05,0.778125 3.4296875,1.1875 2.8953125,1.7078125 C2.3609375,2.2296875 1.940625,2.8390625 1.646875,3.515625 C1.3421875,4.21875 1.1875,4.965625 1.1875,5.734375 C1.1875,6.8375 1.4515625,7.9359375 1.9703125,8.9953125 C2.3875,9.846875 2.9703125,10.6765625 3.7046875,11.465625 C4.959375,12.8125 6.275,13.6359375 6.6484375,13.85625 C6.75625,13.9203125 6.878125,13.9515625 6.9984375,13.9515625 C7.1203125,13.9515625 7.240625,13.9203125 7.3484375,13.85625 C7.721875,13.6359375 9.0375,12.8125 10.2921875,11.465625 C11.0265625,10.678125 11.609375,9.846875 12.0265625,8.9953125 C12.5484375,7.9375 12.8125,6.840625 12.8125,5.7359375 C12.8125,4.9671875 12.6578125,4.2203125 12.353125,3.5171875 Z M7,12.753125 C5.9703125,12.0984375 2.3125,9.50625 2.3125,5.7359375 C2.3125,4.51875 2.7984375,3.375 3.68125,2.5125 C4.5671875,1.6484375 5.7453125,1.171875 7,1.171875 C8.2546875,1.171875 9.4328125,1.6484375 10.31875,2.5140625 C11.2015625,3.375 11.6875,4.51875 11.6875,5.7359375 C11.6875,9.50625 8.0296875,12.0984375 7,12.753125 Z M7,3.109375 C5.48125,3.109375 4.25,4.340625 4.25,5.859375 C4.25,7.378125 5.48125,8.609375 7,8.609375 C8.51875,8.609375 9.75,7.378125 9.75,5.859375 C9.75,4.340625 8.51875,3.109375 7,3.109375 Z M8.2375,7.096875 C7.90625,7.4265625 7.4671875,7.609375 7,7.609375 C6.5328125,7.609375 6.09375,7.4265625 5.7625,7.096875 C5.4328125,6.765625 5.25,6.3265625 5.25,5.859375 C5.25,5.3921875 5.4328125,4.953125 5.7625,4.621875 C6.09375,4.290625 6.5328125,4.109375 7,4.109375 C7.4671875,4.109375 7.90625,4.290625 8.2375,4.621875 C8.56875,4.953125 8.75,5.3921875 8.75,5.859375 C8.75,6.3265625 8.56875,6.765625 8.2375,7.096875 Z" id="形状" fill="#4A4D51"></path>
            </g>
        </g>
    </g>
</svg>