<?xml version="1.0" encoding="UTF-8"?>
<svg width="48px" height="36px" viewBox="0 0 48 36" version="1.1" xmlns="http://www.w3.org/2000/svg" xmlns:xlink="http://www.w3.org/1999/xlink">
    <!-- Generator: Sketch 63.1 (92452) - https://sketch.com -->
    <title>人脸比中</title>
    <desc>Created with Sketch.</desc>
    <g id="页面-1" stroke="none" stroke-width="1" fill="none" fill-rule="evenodd">
        <g id="自定义预设" transform="translate(-720.000000, -523.000000)" fill="#A5ACB2" fill-rule="nonzero">
            <g id="人脸比中" transform="translate(720.000000, 523.000000)">
                <path d="M16.9953947,1.73832237 L21.7495066,1.73832237 C21.9414474,1.73832237 22.096875,1.89375 22.096875,2.08569079 L22.096875,6.72976974 C22.0287829,7.18914474 22.3455592,7.61694079 22.8049342,7.68552632 C23.2643092,7.75361842 23.6921053,7.43684211 23.7606908,6.97746711 C23.7730263,6.89555921 23.7730263,6.81217105 23.7606908,6.73026316 L23.7606908,2.08618421 C23.7606908,0.955263158 22.8439145,0.0384868421 21.7129934,0.0384868421 L16.9588816,0.0384868421 C16.4945724,0.0384868421 16.1175987,0.414967105 16.1175987,0.879276316 C16.1175987,1.34358553 16.4940789,1.72055921 16.9583882,1.72055921 L16.9588816,1.72055921 L16.9953947,1.73832237 Z M6.70115132,22.0889803 L2.03881579,22.0889803 C1.85723684,22.0993421 1.70180921,21.9606908 1.69144737,21.7791118 C1.69095393,21.7666167 1.69095393,21.754107 1.69144737,21.7416118 L1.69144737,16.9875 C1.69144737,16.5231908 1.31447368,16.1467105 0.850164474,16.1467105 C0.385855263,16.1467105 0.009375,16.5231908 0.009375,16.9875 C0.00246710526,17.0175987 0.00246710526,17.0486842 0.009375,17.0787829 L0.009375,21.7411184 C0.009375,22.8720395 0.926151316,23.7888158 2.05707237,23.7888158 L6.71940789,23.7888158 C7.18667763,23.7690789 7.55279605,23.3787829 7.54243421,22.9110197 C7.54243421,22.4467105 7.16595395,22.0697368 6.70115132,22.0697368 L6.70115132,22.0889803 L6.70115132,22.0889803 Z M0.0458881579,6.76677632 C0.0458881579,7.23108553 0.422861842,7.60756579 0.887171053,7.60756579 C1.35148026,7.60756579 1.72796053,7.23108553 1.72796053,6.76677632 C1.73782895,6.72483553 1.73782895,6.68092105 1.72796053,6.63898026 L1.72796053,2.10444079 C1.72746711,1.92286184 1.875,1.77532895 2.05657895,1.77483553 C2.06299342,1.77483553 2.06891447,1.77483553 2.07532895,1.77532895 L6.86595395,1.77532895 C7.32532895,1.84342105 7.753125,1.52664474 7.82171053,1.06726974 C7.88980263,0.607894737 7.57302632,0.180098684 7.11365132,0.111513158 C7.03174342,0.0991776316 6.94835526,0.0991776316 6.86644737,0.111513158 L2.11184211,0.111513158 C0.980921053,0.111513158 0.0641447368,1.02828947 0.0641447368,2.15921053 L0.0641447368,6.80328947 L0.0458881579,6.76677632 Z M16.5019737,15.7445724 C15.3498355,15.0680921 13.7225329,14.7207237 13.7225329,13.9159539 C13.7225329,12.8555921 15.2585526,11.9047697 15.2585526,9.36315789 C15.2585526,8.46710526 14.8199013,5.13947368 11.9309211,5.13947368 C9.04194079,5.13947368 8.58503289,8.46710526 8.58503289,9.36315789 C8.58503289,11.9047697 10.1210526,12.8555921 10.1210526,13.9159539 C10.1210526,14.6654605 8.53026316,15.0128289 7.35986842,15.7445724 C6.18947368,16.4763158 5.165625,16.8049342 5.165625,17.9935855 C5.165625,18.8713816 5.96990132,18.7065789 6.75641447,18.7065789 L17.0506579,18.7065789 C17.8001645,18.7065789 18.5684211,18.834375 18.5684211,17.9935855 C18.5684211,16.8049342 17.4532895,16.3480263 16.4106908,15.7445724 M40.8999178,13.3166118 L45.6989309,13.3166118 C45.8928454,13.3166118 46.0497533,13.4735197 46.0497533,13.6674342 L46.0497533,18.3559211 C45.9806743,18.8197368 46.3009046,19.2514803 46.7647204,19.3205592 C47.2285362,19.3896382 47.6602796,19.0694079 47.7293586,18.6055921 C47.7416941,18.5226974 47.7416941,18.4388158 47.7293586,18.3559211 L47.7293586,13.6674342 C47.7293586,12.5256579 46.8037007,11.6 45.6619243,11.6 L40.8629112,11.6 C40.3941612,11.6 40.0137336,11.9799342 40.0137336,12.4486842 C40.0137336,12.9174342 40.3936678,13.2978618 40.8624178,13.2978618 L40.8629112,13.2978618 L40.8999178,13.3166118 L40.8999178,13.3166118 Z M30.507977,33.8601974 L25.8012336,33.8601974 C25.61801,33.870578 25.4610086,33.7305796 25.4504112,33.5473684 C25.4499178,33.5345395 25.4499178,33.5222039 25.4504112,33.509375 L25.4504112,28.7103618 C25.4504112,28.2416118 25.0699836,27.8611842 24.6012336,27.8616772 C24.1324836,27.8616772 23.7525493,28.2416118 23.7525493,28.7103618 C23.7456414,28.7409539 23.7456414,28.7725329 23.7525493,28.8026316 L23.7525493,33.509375 C23.7525493,34.6511513 24.6782072,35.5768092 25.8199836,35.5768092 L30.526727,35.5768092 C30.9984375,35.5570724 31.3680099,35.1628289 31.3571546,34.690625 C31.3571546,34.221875 30.9772204,33.8414474 30.507977,33.8414474 L30.507977,33.8601974 L30.507977,33.8601974 Z M47.7846217,28.7473684 C47.7846217,28.2884868 47.4130757,27.9164474 46.9541941,27.9164474 L46.9354441,27.9164474 C46.473602,27.9164474 46.0966283,28.2855263 46.0862664,28.746875 L46.0862664,33.5458882 C46.0768622,33.7356102 45.9251661,33.8873062 45.7354441,33.8967105 L40.9369243,33.8967105 C40.4691612,33.8651316 40.0640625,34.2189145 40.0324836,34.6866776 L40.0324836,34.6901316 C40.0221217,35.1485197 40.385773,35.5289474 40.8441612,35.5393092 C40.8564967,35.5398026 40.8688322,35.5398026 40.8816612,35.5393092 L45.6066612,35.5393092 C46.7484375,35.5393092 47.6740954,34.6136513 47.6740954,33.471875 L47.6740954,28.746875 L47.7846217,28.746875 L47.7846217,28.7473684 Z M35.7870888,16.7498355 C38.7032072,16.7498355 39.1462993,20.1090461 39.1462993,21.0134868 C39.1462993,23.5792763 37.5959704,24.5389803 37.5959704,25.6097039 C37.5959704,26.421875 39.2385691,26.7726974 40.4015625,27.4555921 L40.4015625,27.4555921 L40.3092928,27.4555921 C41.3612664,28.0644737 42.4872533,28.5258224 42.4872533,29.7258224 C42.4872533,30.575 41.7120888,30.4457237 40.9551809,30.4457237 L40.9551809,30.4457237 L30.5632401,30.4457237 C29.7693257,30.4457237 28.9571546,30.6120066 28.9571546,29.7258224 C28.9571546,28.5263158 29.9908717,28.19375 31.1721217,27.4555921 C32.3533717,26.7169408 33.9594572,26.3666118 33.9594572,25.6097039 C33.9594572,24.5389803 32.4091283,23.5792763 32.4091283,21.0134868 C32.4091283,20.1090461 32.8709704,16.7498355 35.7870888,16.7498355 Z M19.7355535,10.3578947 C21.206435,11.9499789 22.7333707,13.4891761 24.3134668,14.9725693 C26.6206231,12.6448999 28.4629882,10.6116948 28.4629882,10.6116948 C30.214355,12.4065242 32.8421053,12.6841618 32.8421053,12.6841618 C30.8723426,14.1298408 28.89838,15.8391353 27.0952141,17.5316033 C30.0659578,20.1929987 32.4067135,22.0901894 32.4067135,22.0901894 C31.2265359,22.4828083 28.8899801,24.939481 28.8899801,24.939481 C28.1871934,23.4895954 26.4792258,21.7228103 24.5332626,20.0261356 C21.5317195,23.0535079 19.445759,25.5157895 19.445759,25.5157895 C18.969768,23.6746872 16.4078165,21.6176445 16.4078165,21.6176445 C17.6033939,21.1563173 19.5815564,19.5101222 21.5933183,17.6269536 C18.7359724,15.4212766 16.1684211,13.7484396 16.1684211,13.7484396 C17.915588,13.1342714 19.7355535,10.3578947 19.7355535,10.3578947 Z" id="形状"></path>
            </g>
        </g>
    </g>
</svg>