<?xml version="1.0" encoding="UTF-8"?>
<svg width="14px" height="14px" viewBox="0 0 14 14" version="1.1" xmlns="http://www.w3.org/2000/svg" xmlns:xlink="http://www.w3.org/1999/xlink">
    <!-- Generator: Sketch 62 (91390) - https://sketch.com -->
    <title>温度</title>
    <desc>Created with Sketch.</desc>
    <g id="页面-1" stroke="none" stroke-width="1" fill="none" fill-rule="evenodd">
        <g id="自定义预设" transform="translate(-720.000000, -499.000000)" fill-rule="nonzero">
            <g id="温度" transform="translate(720.000000, 499.000000)">
                <rect id="矩形" fill="#000000" opacity="0" x="0" y="0" width="14" height="14"></rect>
                <path d="M6.10032552,3.06640625 L6.10032552,9.90885417 C6.10032552,9.9690841 6.07603896,10.0235672 6.03648724,10.0629447 C5.99677486,10.1024821 5.94178163,10.1266927 5.88085938,10.1266927 C5.82043367,10.1266927 5.76563506,10.1019243 5.72589837,10.0621876 C5.68616169,10.0224509 5.66139323,9.96765226 5.66139323,9.90722656 L5.66139323,3.06640625 C5.90679479,2.87756689 5.98956898,2.86519386 6.03582038,2.91144525 C6.07555706,2.95118194 6.10032552,3.00598055 6.10032552,3.06640625 Z M10.0611979,7.85463542 L9.45068165,8.10150365 L10.0611979,7.85463542 Z M10.0611979,7.85463542 L10.6717142,7.60776719 L10.0611979,7.85463542 Z M10.0611979,5.77570312 L9.45068165,6.02257136 L10.0611979,5.77570312 Z M10.0611979,5.77570312 L10.6717142,5.52883489 L10.0611979,5.77570312 Z M10.0611979,3.69677083 L9.45068165,3.94363906 L10.0611979,3.69677083 Z M10.0611979,3.69677083 L10.6717142,3.4499026 L10.0611979,3.69677083 Z M10.0611979,1.61783854 L9.45068165,1.86470677 L10.0611979,1.61783854 Z M10.0611979,1.61783854 L10.6717142,1.37097031 L10.0611979,1.61783854 Z M7.54889323,1.84895833 L7.54889323,9.01416798 C8.18771287,9.53054606 8.54987134,10.2884812 8.54987142,11.1101813 C8.5506416,11.8541064 8.24797726,12.5289862 7.75904634,13.0179169 C7.27005922,13.5069037 6.594709,13.8099609 5.8499349,13.8099609 C5.10537406,13.8099609 4.43058507,13.507068 3.94183469,13.0183176 C3.45282855,12.5293115 3.15,11.8542069 3.15,11.110026 C3.15,10.2884127 3.51390004,9.53045812 4.15097656,9.01404792 L4.15097656,1.84895833 C4.15097656,1.38084745 4.34174751,0.956159259 4.64944167,0.648465106 C4.95713582,0.340770952 5.38182402,0.15 5.8499349,0.15 C6.31804577,0.15 6.74273397,0.340770952 7.05042812,0.648465106 C7.35812228,0.956159259 7.54889323,1.38084745 7.54889323,1.84895833 Z M7.10996094,1.84895833 C7.10996094,1.50161978 6.9686919,1.18657289 6.74050612,0.958387108 C6.51232034,0.730201327 6.19727345,0.588932292 5.8499349,0.588932292 C5.50259634,0.588932292 5.18754945,0.730201327 4.95936367,0.958387108 C4.73117789,1.18657289 4.58990885,1.50161978 4.58990885,1.84895833 L4.44323477,9.34238927 C3.89917892,9.77486018 3.58893229,10.4148855 3.58893229,11.1083984 C3.58893229,11.7316123 3.84250444,12.2969054 4.25196621,12.7063671 C4.66142798,13.1158289 5.22672099,13.369401 5.8499349,13.369401 C6.4731488,13.369401 7.03844181,13.1158289 7.44790358,12.7063671 C7.85736535,12.2969054 8.1109375,11.7316123 8.1109375,11.1083984 C8.1109375,10.4147173 7.80357165,9.77170446 7.10996094,9.23231956 L7.10996094,1.84895833 Z" id="形状结合" stroke="#4A4D51" stroke-width="0.3" fill="#4A4D51"></path>
            </g>
        </g>
    </g>
</svg>