<?xml version="1.0" encoding="UTF-8"?>
<svg width="14px" height="14px" viewBox="0 0 14 14" version="1.1" xmlns="http://www.w3.org/2000/svg" xmlns:xlink="http://www.w3.org/1999/xlink">
    <!-- Generator: Sketch 62 (91390) - https://sketch.com -->
    <title>时间</title>
    <desc>Created with Sketch.</desc>
    <g id="页面-1" stroke="none" stroke-width="1" fill="none" fill-rule="evenodd">
        <g id="自定义预设" transform="translate(-742.000000, -499.000000)" fill-rule="nonzero">
            <g id="时间" transform="translate(742.000000, 499.000000)">
                <rect id="矩形" fill="#000000" opacity="0" x="0" y="0" width="14" height="14"></rect>
                <path d="M7.01375968,13.1225569 C5.37144117,13.1225569 3.82750396,12.4830085 2.66619333,11.3217818 C1.50478475,10.1603873 0.865236367,8.61635212 0.865236367,6.97403361 C0.865236367,5.33170112 1.50478475,3.78777789 2.66619332,2.62646727 C3.82732208,1.46524056 5.37144117,0.825678191 7.01375968,0.825678191 C8.65591029,0.825678191 10.2000154,1.46522657 11.36134,2.62645327 C13.7586706,5.02386782 13.7584887,8.92454916 11.36134,11.3216839 C10.2000154,12.4830085 8.65609217,13.1225569 7.01375968,13.1225569 Z M7.01375968,1.92883026 C5.66608141,1.92883026 4.39900248,2.45364243 3.44615052,3.4065084 C2.49320061,4.35945829 1.96837445,5.62643927 1.96837445,6.97403361 C1.96837445,8.32172588 2.49320061,9.58869287 3.44613653,10.5417407 C4.39918437,11.4945927 5.66606742,12.0194048 7.01374569,12.0194048 C8.36143796,12.0194048 9.62832101,11.4945927 10.5813688,10.5416428 C12.5484911,8.5746044 12.5484911,5.37379855 10.5813688,3.40649438 C9.62833499,2.45364243 8.36128405,1.92883026 7.01375968,1.92883026 Z M7.02060103,7.76645635 C6.71590161,7.76645635 6.46902499,7.51949579 6.46902499,7.2148943 L6.46902499,4.14390643 C6.46902499,3.83930494 6.71590162,3.5923304 7.02060104,3.5923304 C7.32528646,3.5923304 7.57217707,3.83930494 7.57217707,4.14390643 L7.57217707,7.2148943 C7.57216307,7.51949579 7.32528646,7.76645635 7.02060103,7.76645635 Z M5.38508191,9.52190215 C5.24395959,9.52190215 5.10283728,9.46803867 4.99511031,9.36040965 C4.7796564,9.14495574 4.7796564,8.79572451 4.99511031,8.58035454 L6.63060146,6.94466753 C6.84570562,6.72921361 7.19510472,6.72929754 7.41055864,6.94458358 C7.62601256,7.1600375 7.62601256,7.50925473 7.41055864,7.7246387 L5.7750675,9.36031171 C5.66752242,9.46803867 5.52621822,9.52190215 5.38508191,9.52190215 Z" id="形状" fill="#4A4D51"></path>
            </g>
        </g>
    </g>
</svg>