<?xml version="1.0" encoding="UTF-8"?>
<svg width="16px" height="16px" viewBox="0 0 16 16" version="1.1" xmlns="http://www.w3.org/2000/svg" xmlns:xlink="http://www.w3.org/1999/xlink">
    <!-- Generator: Sketch 62 (91390) - https://sketch.com -->
    <title>编组</title>
    <desc>Created with Sketch.</desc>
    <g id="页面-1" stroke="none" stroke-width="1" fill="none" fill-rule="evenodd">
        <g id="自定义预设" transform="translate(-720.000000, -435.000000)">
            <g id="编组" transform="translate(720.000000, 435.000000)">
                <rect id="矩形" x="0" y="0" width="16" height="16"></rect>
                <path d="M4.5895573,6.02278146 L6.95644978,6.86219396 C7.12075368,6.92051688 7.30149723,6.91041669 7.45668085,6.83701941 L7.54638784,6.7854264 L8.31548565,6.25789558 L12.3804787,7.70051303 L12.176,8.258 L12.999,8.55 L13.0574404,8.39295192 C13.1052312,8.26260019 13.2401567,8.1837549 13.3793056,8.2048605 L14.1502928,8.32187087 C14.3334537,8.34964715 14.4452619,8.53500469 14.3823559,8.70647408 L13.6160366,10.7970227 C13.5532418,10.9686015 13.3468524,11.0409948 13.1878092,10.9472772 L12.5185163,10.5530507 C12.3977057,10.4819696 12.3450247,10.3365268 12.3927043,10.2061751 L12.45,10.049 L11.627,9.756 L11.4221073,10.3154212 C11.3666478,10.4660037 11.1981576,10.5440835 11.045116,10.4896245 L7.899,9.373 L6.92339858,10.3329181 L6.89779807,10.3579928 C7.04128502,10.55522 7.12573241,10.7968706 7.12573241,11.0579449 C7.12573241,11.7227168 6.57802808,12.26173 5.90228896,12.26173 C5.3925246,12.26173 4.95552098,11.9548822 4.77167863,11.5186884 L3.22,11.518 L3.22032905,12.6498326 C3.22032905,12.9536221 2.97003884,13.2 2.66117715,13.2 L1.89307961,13.2 C1.73125787,13.2 1.6,13.0708512 1.6,12.9116296 L1.6,9.20404148 C1.6,9.04471056 1.73125787,8.91556175 1.89307961,8.91556175 L2.66117715,8.91556175 C2.97003884,8.9156711 3.22032905,9.16193963 3.22032905,9.46583851 L3.22,10.597 L4.7716487,10.5972266 C4.95547354,10.1609787 5.39249694,9.85415982 5.90228896,9.85415982 C5.9602294,9.85415982 6.01722853,9.85812184 6.07302179,9.86578558 L6.926,9.027 L3.88794958,7.94973417 L4.5895573,6.02278146 Z M5.90228896,10.671592 C5.68545227,10.671592 5.50973788,10.8445924 5.50973788,11.0579449 C5.50973788,11.2712974 5.68545227,11.4441885 5.90228896,11.4441885 C6.11912565,11.4441885 6.29495117,11.2712974 6.29495117,11.0579449 C6.29495117,10.8445924 6.11912565,10.671592 5.90228896,10.671592 Z M3.10907133,5.49678146 L4.1765573,5.87578146 L3.4743928,7.80286976 L3.20176319,7.70630887 C2.76064334,7.54971182 2.53202569,7.07095356 2.69118004,6.63724972 L3.10907133,5.49678146 Z M4.02131137,2.80191883 L4.08744822,2.81724422 L14.0089211,6.33827186 C14.1618515,6.39251218 14.2410953,6.55851378 14.1859692,6.70909629 L14.1859692,6.70909629 L14.1085037,6.92048042 C13.9251206,7.42089109 13.3641904,7.68017293 12.855719,7.49962703 L12.855719,7.49962703 L8.26324922,5.86990235 L7.34444407,6.50022732 C7.26608946,6.55403021 7.16606229,6.56704352 7.07614898,6.53511172 L7.07614898,6.53511172 L3.2195458,5.16652792 C3.06617081,5.1120689 2.9870382,4.94541115 3.04283112,4.79471929 L3.04283112,4.79471929 L3.71056806,2.99144749 C3.76569415,2.84097435 3.93451779,2.7630039 4.08744822,2.81724422 Z" id="形状结合" fill="#4A4D51" fill-rule="nonzero"></path>
            </g>
        </g>
    </g>
</svg>